<mxfile host="app.diagrams.net" modified="2023-02-07T13:51:40.855Z" agent="5.0 (Windows NT 10.0; Win64; x64) AppleWebKit/537.36 (KHTML, like Gecko) Chrome/109.0.0.0 Safari/537.36" etag="dS2rzsy81ngMZnOSaOFg" version="20.8.17" type="github">
  <diagram name="Página-1" id="wEBP1CgwwwgjGiormqT6">
    <mxGraphModel dx="2049" dy="1010" grid="1" gridSize="10" guides="1" tooltips="1" connect="1" arrows="1" fold="1" page="1" pageScale="1" pageWidth="827" pageHeight="1169" math="0" shadow="0">
      <root>
        <mxCell id="0" />
        <mxCell id="1" parent="0" />
        <mxCell id="hQloU-ylsv0QonK6hRle-1" value="&lt;b&gt;&lt;font style=&quot;font-size: 18px; background-color: rgb(255, 247, 13);&quot;&gt;Front end&lt;/font&gt;&lt;/b&gt;" style="rounded=0;whiteSpace=wrap;html=1;" vertex="1" parent="1">
          <mxGeometry x="70" y="170" width="120" height="50" as="geometry" />
        </mxCell>
        <mxCell id="hQloU-ylsv0QonK6hRle-3" value="" style="endArrow=classic;html=1;rounded=0;fontSize=18;" edge="1" parent="1">
          <mxGeometry width="50" height="50" relative="1" as="geometry">
            <mxPoint x="140" y="230" as="sourcePoint" />
            <mxPoint x="200" y="320" as="targetPoint" />
            <Array as="points">
              <mxPoint x="140" y="320" />
            </Array>
          </mxGeometry>
        </mxCell>
        <mxCell id="hQloU-ylsv0QonK6hRle-4" value="" style="endArrow=classic;html=1;rounded=0;fontSize=18;" edge="1" parent="1">
          <mxGeometry width="50" height="50" relative="1" as="geometry">
            <mxPoint x="140" y="280" as="sourcePoint" />
            <mxPoint x="200" y="280" as="targetPoint" />
          </mxGeometry>
        </mxCell>
        <mxCell id="hQloU-ylsv0QonK6hRle-5" value="" style="endArrow=classic;html=1;rounded=0;fontSize=18;" edge="1" parent="1">
          <mxGeometry width="50" height="50" relative="1" as="geometry">
            <mxPoint x="140" y="320" as="sourcePoint" />
            <mxPoint x="200" y="360" as="targetPoint" />
            <Array as="points">
              <mxPoint x="140" y="360" />
            </Array>
          </mxGeometry>
        </mxCell>
        <mxCell id="hQloU-ylsv0QonK6hRle-6" value="Inicio" style="text;html=1;strokeColor=none;fillColor=none;align=center;verticalAlign=middle;whiteSpace=wrap;rounded=0;fontSize=18;" vertex="1" parent="1">
          <mxGeometry x="195" y="260" width="60" height="30" as="geometry" />
        </mxCell>
        <mxCell id="hQloU-ylsv0QonK6hRle-7" value="Sobre mi" style="text;html=1;strokeColor=none;fillColor=none;align=center;verticalAlign=middle;whiteSpace=wrap;rounded=0;fontSize=18;" vertex="1" parent="1">
          <mxGeometry x="200" y="300" width="80" height="30" as="geometry" />
        </mxCell>
        <mxCell id="hQloU-ylsv0QonK6hRle-8" value="Contacto" style="text;html=1;strokeColor=none;fillColor=none;align=center;verticalAlign=middle;whiteSpace=wrap;rounded=0;fontSize=18;" vertex="1" parent="1">
          <mxGeometry x="210" y="340" width="60" height="30" as="geometry" />
        </mxCell>
        <mxCell id="hQloU-ylsv0QonK6hRle-9" value="" style="endArrow=classic;html=1;rounded=0;fontSize=18;" edge="1" parent="1">
          <mxGeometry width="50" height="50" relative="1" as="geometry">
            <mxPoint x="140" y="360" as="sourcePoint" />
            <mxPoint x="200" y="400" as="targetPoint" />
            <Array as="points">
              <mxPoint x="140" y="400" />
            </Array>
          </mxGeometry>
        </mxCell>
        <mxCell id="hQloU-ylsv0QonK6hRle-10" value="Proyectos" style="text;html=1;align=center;verticalAlign=middle;resizable=0;points=[];autosize=1;strokeColor=none;fillColor=none;fontSize=18;" vertex="1" parent="1">
          <mxGeometry x="190" y="380" width="100" height="40" as="geometry" />
        </mxCell>
        <mxCell id="hQloU-ylsv0QonK6hRle-13" value="&lt;b style=&quot;background-color: rgb(255, 179, 0);&quot;&gt;Back end&lt;/b&gt;" style="rounded=0;whiteSpace=wrap;html=1;fontSize=18;" vertex="1" parent="1">
          <mxGeometry x="75" y="520" width="120" height="60" as="geometry" />
        </mxCell>
        <mxCell id="hQloU-ylsv0QonK6hRle-14" value="" style="endArrow=classic;html=1;rounded=0;fontSize=18;" edge="1" parent="1">
          <mxGeometry width="50" height="50" relative="1" as="geometry">
            <mxPoint x="135" y="590" as="sourcePoint" />
            <mxPoint x="195" y="750" as="targetPoint" />
            <Array as="points">
              <mxPoint x="135" y="750" />
            </Array>
          </mxGeometry>
        </mxCell>
        <mxCell id="hQloU-ylsv0QonK6hRle-16" value="" style="endArrow=classic;html=1;rounded=0;fontSize=18;" edge="1" parent="1">
          <mxGeometry width="50" height="50" relative="1" as="geometry">
            <mxPoint x="135" y="710" as="sourcePoint" />
            <mxPoint x="195" y="710" as="targetPoint" />
          </mxGeometry>
        </mxCell>
        <mxCell id="hQloU-ylsv0QonK6hRle-17" value="" style="endArrow=classic;html=1;rounded=0;fontSize=18;" edge="1" parent="1">
          <mxGeometry width="50" height="50" relative="1" as="geometry">
            <mxPoint x="135" y="670" as="sourcePoint" />
            <mxPoint x="195" y="670" as="targetPoint" />
          </mxGeometry>
        </mxCell>
        <mxCell id="hQloU-ylsv0QonK6hRle-18" value="Login/logout" style="text;html=1;align=center;verticalAlign=middle;resizable=0;points=[];autosize=1;strokeColor=none;fillColor=none;fontSize=18;" vertex="1" parent="1">
          <mxGeometry x="190" y="650" width="120" height="40" as="geometry" />
        </mxCell>
        <mxCell id="hQloU-ylsv0QonK6hRle-19" value="Contacto" style="text;html=1;align=center;verticalAlign=middle;resizable=0;points=[];autosize=1;strokeColor=none;fillColor=none;fontSize=18;" vertex="1" parent="1">
          <mxGeometry x="190" y="690" width="100" height="40" as="geometry" />
        </mxCell>
        <mxCell id="hQloU-ylsv0QonK6hRle-20" value="Funciones de edición" style="text;html=1;align=center;verticalAlign=middle;resizable=0;points=[];autosize=1;strokeColor=none;fillColor=none;fontSize=18;" vertex="1" parent="1">
          <mxGeometry x="190" y="730" width="190" height="40" as="geometry" />
        </mxCell>
        <mxCell id="hQloU-ylsv0QonK6hRle-21" value="&lt;span style=&quot;background-color: rgb(140, 205, 255);&quot;&gt;Navegador cliente&lt;/span&gt;" style="rounded=1;whiteSpace=wrap;html=1;labelBackgroundColor=#FFB300;fontSize=18;" vertex="1" parent="1">
          <mxGeometry x="40" y="20" width="200" height="60" as="geometry" />
        </mxCell>
        <mxCell id="hQloU-ylsv0QonK6hRle-26" value="" style="endArrow=classic;html=1;rounded=0;fontSize=18;exitX=0.47;exitY=0.983;exitDx=0;exitDy=0;exitPerimeter=0;" edge="1" parent="1" source="hQloU-ylsv0QonK6hRle-21">
          <mxGeometry width="50" height="50" relative="1" as="geometry">
            <mxPoint x="390" y="400" as="sourcePoint" />
            <mxPoint x="134" y="160" as="targetPoint" />
          </mxGeometry>
        </mxCell>
        <mxCell id="hQloU-ylsv0QonK6hRle-27" value="http" style="text;html=1;strokeColor=none;fillColor=none;align=center;verticalAlign=middle;whiteSpace=wrap;rounded=0;fontSize=18;" vertex="1" parent="1">
          <mxGeometry x="130" y="110" width="60" height="30" as="geometry" />
        </mxCell>
        <mxCell id="hQloU-ylsv0QonK6hRle-28" value="" style="endArrow=classic;html=1;rounded=0;fontSize=18;" edge="1" parent="1">
          <mxGeometry width="50" height="50" relative="1" as="geometry">
            <mxPoint x="140" y="240" as="sourcePoint" />
            <mxPoint x="200" y="240" as="targetPoint" />
          </mxGeometry>
        </mxCell>
        <mxCell id="hQloU-ylsv0QonK6hRle-29" value="Login/logout" style="text;html=1;align=center;verticalAlign=middle;resizable=0;points=[];autosize=1;strokeColor=none;fillColor=none;fontSize=18;" vertex="1" parent="1">
          <mxGeometry x="190" y="220" width="120" height="40" as="geometry" />
        </mxCell>
        <mxCell id="hQloU-ylsv0QonK6hRle-30" value="" style="endArrow=classic;html=1;rounded=0;fontSize=18;" edge="1" parent="1">
          <mxGeometry width="50" height="50" relative="1" as="geometry">
            <mxPoint x="140" y="400" as="sourcePoint" />
            <mxPoint x="200" y="440" as="targetPoint" />
            <Array as="points">
              <mxPoint x="140" y="440" />
            </Array>
          </mxGeometry>
        </mxCell>
        <mxCell id="hQloU-ylsv0QonK6hRle-31" value="Funciones de edición" style="text;html=1;align=center;verticalAlign=middle;resizable=0;points=[];autosize=1;strokeColor=none;fillColor=none;fontSize=18;" vertex="1" parent="1">
          <mxGeometry x="190" y="420" width="190" height="40" as="geometry" />
        </mxCell>
        <mxCell id="hQloU-ylsv0QonK6hRle-33" value="&lt;span style=&quot;background-color: rgb(13, 255, 182);&quot;&gt;DB&lt;/span&gt;" style="rounded=0;whiteSpace=wrap;html=1;labelBackgroundColor=#FFB300;fontSize=18;" vertex="1" parent="1">
          <mxGeometry x="80" y="850" width="120" height="60" as="geometry" />
        </mxCell>
        <mxCell id="hQloU-ylsv0QonK6hRle-35" value="" style="endArrow=classic;startArrow=classic;html=1;rounded=0;fontSize=18;" edge="1" parent="1">
          <mxGeometry width="50" height="50" relative="1" as="geometry">
            <mxPoint x="150" y="510" as="sourcePoint" />
            <mxPoint x="150" y="460" as="targetPoint" />
          </mxGeometry>
        </mxCell>
        <mxCell id="hQloU-ylsv0QonK6hRle-36" value="http" style="text;html=1;align=center;verticalAlign=middle;resizable=0;points=[];autosize=1;strokeColor=none;fillColor=none;fontSize=18;" vertex="1" parent="1">
          <mxGeometry x="145" y="460" width="50" height="40" as="geometry" />
        </mxCell>
        <mxCell id="hQloU-ylsv0QonK6hRle-37" value="" style="endArrow=classic;startArrow=classic;html=1;rounded=0;fontSize=18;" edge="1" parent="1">
          <mxGeometry width="50" height="50" relative="1" as="geometry">
            <mxPoint x="150" y="840" as="sourcePoint" />
            <mxPoint x="150" y="770" as="targetPoint" />
            <Array as="points">
              <mxPoint x="150" y="800" />
            </Array>
          </mxGeometry>
        </mxCell>
        <mxCell id="hQloU-ylsv0QonK6hRle-38" value="TCP" style="text;html=1;align=center;verticalAlign=middle;resizable=0;points=[];autosize=1;strokeColor=none;fillColor=none;fontSize=18;" vertex="1" parent="1">
          <mxGeometry x="160" y="790" width="60" height="40" as="geometry" />
        </mxCell>
        <mxCell id="hQloU-ylsv0QonK6hRle-39" value="" style="shape=image;verticalLabelPosition=bottom;labelBackgroundColor=default;verticalAlign=top;aspect=fixed;imageAspect=0;image=data:image/png,iVBORw0KGgoAAAANSUhEUgAAACAAAAAgCAYAAABzenr0AAAABHNCSVQICAgIfAhkiAAAAAlwSFlzAAAAuQAAALkB4qdB6AAAABl0RVh0U29mdHdhcmUAd3d3Lmlua3NjYXBlLm9yZ5vuPBoAAAXzSURBVFiFtZdtbFtnFcd/z41jO46T2vFLHCfrWrVN07Qq68vSphMsMIbUatM2VDQJ0FSJsgoJJiSENA0xoYJQP6wSlYBpRQg+0E0wVCFNtBoqkK5bwrImbJlZ0pRt2Zq5fs2r4/jl5h4++AkzWXzXTONIj3yfc85z/n8/z//ee64SET7OlFIOYD/QBxwCokAICOqUDJAG4sAA0A9cFRHzY2vbEdDA3wJ+BLQAKYfbPeIO+gsN4bCjIRxqAFhKpZeWUimzkJlxm4XCXiAMTOt1T9sRqUlAKeUG/gF0hffvGe78+sMR/7YtUSr+2iZSmLn+dnzid79PpK7+cx9wDTggIoX1EjgJfO/zz/xs1ntbR9QWtIblbkzF/37iuz7gtIg8uVaOYbP+mFLK8kTbQp8EHMATbQsppSzgWK0cOwJxEfFceuTERDY2Prle8GxsfPLSIycmRMRDRZxrmt0R9Nd7vU6laC4t5HbWuVyT3o3tE6137ptp3nx7U2NbpNUVaOkAKGanpxZvJpLz7763kHxt2J97/4PO5WJxk7PJ+y8R5su5XElE+tbCcdj8CYezyVv3hV//fGdi8NXE5At/iWffGts4d/2dewG1KrdV/4rhdF4LdO+Ib7rvS+7IoQM7//aNbw+Vc7maOHYENi+l0y6ASO+BSKT3QATAXCpQyE7PFjLZzFI6MwvQEAr63MFA0B1o8Tka3F3VRZbS6S1AsRaI3RFcBfb5d3S+1PPk47ucG5pbbMh+xEpz89NDJ0/FZsYmPgcMi8j+9RLoN5zOZjHNqIjl8UajsdbeHjP62d6IJxwK1Dc3+ZRSBoCIWOX5hdl8Kp2NXxlMJAeHHLl4fJdSRl45HHGrVJqvpQFEZM0BXPa2RweOnD9nbj36QMwV8I8AeUD0MFEqg1IZwKzy510B/8jWow/Ejpw/Z3rbowPA5Vo4djtwo87tMo6cP/ffh5BVKuem37qWXbx5cz6fTC/mk+kSgKc15PS0hhob29qaW7q3BwxnvXdlzYUvfy2+XChaInLbeo/gDWD3pvsPX9716LG7VF2dnWA/urPLy2bs7G9fmXzh4t3AqIh8Zr0E+pVhRMSyNhv19R+0Hep5r+OLfYHQHbt31CIjy8tm+vXRsalL/dmbA0O3W+VyuzKMd8WyEp9EA/3e9uhA39kzqZburjeVYWSonHFBGUbc4XaNuXy+YZfPN+xwu8aUYcSBAiDKMDIt3V1v9p09k9Ia6K+FY7etJcs03U0d7aG7nvpJCBGZuf7v8dRrI8V8PFleyk6XS7OzADg3dhQbAi05T7Q1Fb5zr8u/bet2lAoAWKb5DlCqBWJH4Fw+mfpVZmQ0Fty7exdKKX/nti5/5zabJf9rmZHRWD6Z2gt8s1aOnQbqgQvAPd6O6GDnV7/iau3Z1+nweJrsQM18fiE5NDwx8ezzxdxUvBf4K3BERMrrIlBF5CjwY6ALsAyX821no3eu3ttYdG5oNgFKc/OOcm7RVVrMbbCKpS1U3rLjwA9F5I+29W+lJ9REOqj0hL1AhEo/WN0TZoAEMEhFdFO3VPdWCfw/LQj8AmjWZILAL4GmWreOzrsXeBo4C9xf5fcAjwGXgBeB40C9jh0HulbV4UEq9/dzVN7zF/S8zwb8QcCi0rS+rK8f1rHH9fxPwEVd67iOTQKnahEQzVpugcDzuthBPT8GPKGvXwV+U5V7EXixFoHqnvAPwD3AsysOpVRUKXVRKeVTSj2qlHpCh84AjcCgUmoU2Ag8pWMuYK6q7pz2rWnVBL4P3AdUt88WcDfwA+A0sPIMSAN7gIeAG1Q+QH66urhS6iFNtKZVEyiJyJ+B5RWHiCSoCO07VPRxWoceoyIwU8cnAaeOjQOHlVIHgZPAYU1yxcJKqTuUUptXHD1ACq16IKDn3Xq+Q+/Ec1XnGgJe0WSXgStAWMd6gPf5UEtF4Bkdu1LlzwORlYLeVSLzVl2fAnJA6xpiDALBNfx1VD5m9wBeYIP2+4CDemwXkdqv4yqABVYp99Mcdl9GUHmoJPhQ4Z+6/Qe8TKjIu6jufgAAAABJRU5ErkJggg==;" vertex="1" parent="1">
          <mxGeometry x="224" y="850" width="46" height="46" as="geometry" />
        </mxCell>
        <mxCell id="hQloU-ylsv0QonK6hRle-44" value="" style="shape=image;verticalLabelPosition=bottom;labelBackgroundColor=default;verticalAlign=top;aspect=fixed;imageAspect=0;image=data:image/png,iVBORw0KGgoAAAANSUhEUgAAACAAAAAgCAYAAABzenr0AAAABHNCSVQICAgIfAhkiAAAAAlwSFlzAAAA7AAAAOwBeShxvQAAABl0RVh0U29mdHdhcmUAd3d3Lmlua3NjYXBlLm9yZ5vuPBoAAAKySURBVFiFxZZNSFRRFMd/5zo2WZQmWLooQQINShdJVCoNCkGrIHATOWMFrlqHhdQtA+1jEUiLNpZNgTAt+li4iEJoxhYRVCpBUJsg0xZpH+o0zjstdCjNZt7A+PrDg3vv+d9zfvfjPZ6woGCDrSZJuwiNim5iZfQJeKIqXeEhOwIgAMF6exjVG8CqFSq8RBJXpTU8ZPsl2GCrcfS5d8UXQdQakrR7XxxA/QjtRoRG74vPS9Amozgb/xcA6CYfiKQ3SQL47iLZhuwBRHwuEg/cip076CbdsXpbkcA5ICongS1u5hg3Jrfqjdr34ej5az5mtoPE3MxxsQO/FQhYX/kcx5aOq8O0Y5LDt6OdrwB6Y5e+hfZ2hFTy3pJhkVntQEl8Kl9Vry99EA0bNS9D9fZCyts3dOEdyHCmnDk9AoUTi/s65ikAqv7m5ua8VFeQMk8BBHkYiUSSAEfqOipBd2Sak9UlLC2ac6a+you/Asokhui0jysArQFb5CS4A5pxgVkB9Az0xIHadJ6jDadKkgkegda4yZnbOwDceNr1eWaSXYKeduPPagdaA3Z1MqGjy8UEJlT07mzZm6uRiP0JdLXUna0SCOYM4Ed8SgrM+op/hCtEZfeaj9tWAV0AqFxGNC1Azo9AkUOpdnjIjgKzXgPooi5MeApghAepdtvOtnyQknT+rO7AWn+hOgm+LB/VcVT7/bNjF1MjcX/pftCCnAHcHLSzQLEb7/E9tjgheiWTL+dHABDac6YpYTQGVGXyutgBKQ/V27ZMLlWnUFW2isg+RStdkc4DqKb/L9QaVa67AF3IopmMf8oxgkn7mqysZNwo+vj/AehjYxynGyTufXGJC063ufmsc1iVVm8hJC4Q7It1juYBvP4wOFK9OXAPkUKZ/3KtW6HCY8D9pJGWcNQOAvwCTR/+CHDQK1wAAAAASUVORK5CYII=;" vertex="1" parent="1">
          <mxGeometry x="300" y="179" width="32" height="32" as="geometry" />
        </mxCell>
        <mxCell id="hQloU-ylsv0QonK6hRle-45" value="" style="shape=image;verticalLabelPosition=bottom;labelBackgroundColor=default;verticalAlign=top;aspect=fixed;imageAspect=0;image=data:image/png,iVBORw0KGgoAAAANSUhEUgAAACAAAAAgCAYAAABzenr0AAAABHNCSVQICAgIfAhkiAAAAAlwSFlzAAAA3QAAAN0BcFOiBwAAABl0RVh0U29mdHdhcmUAd3d3Lmlua3NjYXBlLm9yZ5vuPBoAAAXjSURBVFiFtVdbbBRVGP7O7Gz31pnuLFu6vVoKVLatgUihXhJahAIlEkgaq4FggtYHnqi8EIHgJRCN8dJGEp5oTAg+QEhIJNyioSoapKhQbgarqduLpVvb7czOXtiZOT50L7PTaReI/Mk8nP8/8/3ffztzhlBKkUvq6urytm/f7mhtbW3iOO5lu91enUgkSgghPgCglI5ardaRWCx2T5KkM6dOneo5duxY9NatWw9yglNK53xkWS5eu6Z5uGrBQpp6Tpw4SfXrqgUL6dGj3VnrtWuah2VZLs6Fz87BzS6K4n6GYd4WPIJzT9seNDauAgAIggAAaH+rHU6nEwBgs9ng8/nQ9mobAKDY5yvRNK1fFMXPeZ4/CCBm5sSUgCzLPk3TThNCGlIlEgQBJSUl6T1Nq5vQ398PRVFw+YfL6OzqxBL/EvT19WFkZAQcx6FlY4uTELJPkqS1DMNscblcozkJyLL8jKZpZwGU6fVdnV3o7u4GAHR07MLIyAgAQFM1AEAsGkvrpkJT4DhO/3qDpmm9sixvdLlcN/UGom/CZOS9RudXr17FxMRker1s6VJcv3Eji7jf78fdu3fTa49HwMqVK43xDTEMs0KfCT0BuyRJPQAajG/9z/Izx3FNSPZEmoAoigcJIfu+vh3CtUH5iXiuL3dhU60blNJDPM/vTxOIRCLFmqb1U0qdB84No/P7+0+EQMeqInzQUgpCSIRhmEVOp/MfFgAURTlACHECQGH+XJNpIkUFufeEIkA8kcamlDoVRTkAYCcLwEYI2ZbaW5hvfTQCXi73nnAMiGdjJ312MKIovgQgjVLoesQMPIwomhk2J4riSywhZLNe6zWUoLbYhaPbqmcHd+TNanqzJ4jbEw8AVTXFJoRsZgH49UpjCeKKhoZKfnYCc0hcTY548rAyKa+fAVCs13gNJQiGE4/lHADGouq0c2qODaCYNRLIsxDwdgvE2HTapqIKVndln3oVHhv2NFegxuec1fFHv4UgPtAAZRqHt1uQZyGmBDSjtjCfTRMAgJ4/QtOOBRv2rn8KO573mYHh35iKj6+HcPjmFCJKMuxUA5qPt8YCCACoyyLgsuLP8Xgm4hyOQ3ENn94IoatvClLCEE+q/i7T8Q6YEzCwPfJaNTbWeswAAAAKpWj382j3Z5r10nAUOy6NpUswSwYCLKV0gJDsqIybx3M0otdugdeerbMwKXazl4BSOsAAOGM0GNP1OJMwFk320NwlOMPyPH9RkqRRAL40AQPb984O4JNvB809PZ0ZokMN8/DGEi6bwOwlGOV5/iILQAXwFYDdKYtxXqvnO/B6wzS/60NhfHlFd7OKZKYl35opZYaAZoqZ9KkyAKCq6hcA0pcAI9siLg+7mkqxq6kUrcu8RqC0+ByWDIEUMdU0A3LSJxgAcLvdA5TSvSmrd44eKCmwwWvyxXTbGFRwGX0wZsxAxkYp3et2uwcA3aWU5/nDkiS1AXjRmIExKfN/8Wx5Pu5/+AJ+HZRw/s4EaCGP5jIHVsy3Q39EjEXV6SNYnTEFP/I8fzi10HvSFEXZyrLsdx4nW2lhCFSNpjNAKZCaVoYA9RUc6ivM7wI0RSCZfgtD4HGyADCgKMpW6E7frFAFQQhMTk42six7yeO0VAXDCgAgmtBQ9M5PWOcXsKHGg/V+z4wvWzCq4sJgBOcDEVwciiKq0HT6PU4LGIK/FEVZLQhCQP/ejNYUBCEQjUYbF3ttd4JhJR1iMJzA8d4xHO8dAyHA8nIOG2o8wHwe5wMR/BKMY8ZfZjL9i702iWXZRo7jhoxbTM9Hh8MxtK4+7Kma5z3yzT1xx6iUsOjtlALXAhKuBSSgtmwmAAUQjaMgFtc2LZ/XvWjB+E6Hw6GY+SK5/o7fPz3gvj0uHb/w+1SLGFNnfolSBBLq9N0vHAOnKHRDNXeu1stte3dLZWgu/JwEUrL75L3SaEJtm4qpz03ISs39sFIWmIzzsQIXKbdq4UoH87fHxd4psFuuOKyWE5+9Uj38MLj/Ab2epp3mzqegAAAAAElFTkSuQmCC;" vertex="1" parent="1">
          <mxGeometry x="258" y="170" width="41" height="41" as="geometry" />
        </mxCell>
        <mxCell id="hQloU-ylsv0QonK6hRle-46" value="" style="shape=image;verticalLabelPosition=bottom;labelBackgroundColor=default;verticalAlign=top;aspect=fixed;imageAspect=0;image=data:image/png,iVBORw0KGgoAAAANSUhEUgAAACAAAAAgCAYAAABzenr0AAAABHNCSVQICAgIfAhkiAAAAAlwSFlzAAAA7AAAAOwBeShxvQAAABl0RVh0U29mdHdhcmUAd3d3Lmlua3NjYXBlLm9yZ5vuPBoAAAPPSURBVFiFxZdfiFRVHMc/584dV5d1WnOVTNcs1Ic1sIf+YGkP4R9Mg4isB3vxoRcRH4WIJHoIgt6kHnzxoSAwiJbWoEUpEVm1xFpQCLdQwdw7s2M7MzvOzN6Zc3q4587cufeeO3cE6QfDOfd3fvf3+97fv/MbMNPLgAJeBI4BDeB9zfN/XwBTQAlYA/yo+a/r9ZUE/QBYvQSAD4C39P4K8JnefwWM630OOAvsTaEvNfkeuAsU8TwAsEHz39TPU8BvwKLeBz1wAHgGWGYyksYDB+h8tYmuAweBL0P808BfwHbTi3aC0j+Bd/Ra1IoACpr/q37+EFjAC896fXZNrz5N9/iA/49EmKH2P7UN1CePyNxxMXF7KsiJhkAhEOx8NAA4HmZEAUjpkIk4xkwjKWRKgAso5fQGMFR3qBmrJkrZFDJKr24jAiBShuLbwgLwID2CFCQBqIpJpxo+ii9DRR7BBgA5NMz9E+eMukdGEmJwdAxqVR9A5OvB1Igs0Ra2qmVoNc1GTOTWod42Dqh8nJjBA4FkURKrMo8c9r40U7gbEBQoWyLcelTH/Ky3+gCUiPWAqRN2CVvl+20Awx+9i2jUOodrDBp88gFY/YQAFQJQ7OjLPd7DogEA0RIEYwhEPtgjRakDwN26HXnvlj4QZJ8YANmK6vj3H5j9G/wjZfWRAxZOu3bxQuDTwsFjXaLGKjhzAsY/D+RAvAcMIZDGEKSmcsFb2x7oJwTYTiB42DPTLP3lu6iYEKjR1Yi67i9PPwejY96+okH7amy7DwBSOsEcyM5Mk50xXOnBKnjv0w6AUqEbgNVPCM7cmccbsQBortvE3KmrzJ26SuVwwnCUC+RDpQtAg+9vlVIDEN71UWgLpS3D3KrOvjznafEA5AXBtO5Q0kjmAGsBrIWSV2pWhuboZqpvH2HJjSvYN39HZC3Y+DyM7YAnN3tvNl2oVYJpFFuCPQAopz0wyRZWtYxcvgI1OERt3yFq+w4h3AYrV60GO3QnV+ZAqSCA2PhD0lQc6t1Lz50mM3u7WyQ7EDV+7yac/1oD95nx9wAkeSDUjAbHTzI4fhL52ErcZ7exuHUHi1tegmYOblyA6bNw/TwUA5dVjzacDECpfMzMilUqMnBxgoGLE5CxvTI0Xdd+ExLxV3EyACzHkLgBA82OEZ9cvP9QiwQK2XqYELQu08p8g1C7SBo9W9pQQ/9k12kewSRSXTK9nmr8VW+s34Jkvx7XXwWWGESbwB/ABIofeOHONfFxCNLDAOgCs3djDrvxGkrsAXYDLVCTIH5iWe1nPdSmpv8ALBpeszoTkgAAAAAASUVORK5CYII=;" vertex="1" parent="1">
          <mxGeometry x="220" y="170" width="41" height="41" as="geometry" />
        </mxCell>
        <mxCell id="hQloU-ylsv0QonK6hRle-47" value="" style="shape=image;verticalLabelPosition=bottom;labelBackgroundColor=default;verticalAlign=top;aspect=fixed;imageAspect=0;image=data:image/png,iVBORw0KGgoAAAANSUhEUgAAADIAAAAyCAYAAAAeP4ixAAAACXBIWXMAAAsTAAALEwEAmpwYAAADRUlEQVR4nO2aXWiPURzHP7M2k9clkrcYGvNaimIlWRITFybtgiEzuRAXtCmtvCSRu+GCFdG48nYhi5tZkWUuLK9T3llaMiab7a+njno6Pf/znHOe839Z9q1z9fzO9/v7Pv/znOd3fs8f+vH/YAFwEngPvAQOA3PoIygAqoHnQCzOeA0cFbFphQnALuCeIvl4o0UYz09V8iOBcpF8r4UBlalpiU5+OLARuAF0OUo+zFSeq+RzgNXAeeCnZVINlssuJkaTWLpjTZPPBIpE8t8d3N1icTOi8vSIG+KZGhNmohL46niJZIjR4pC3GzilMtLheK2X+bjLHHN3qIy8cij0Dsj2cWcBbxzyP1UZueNQaHcA/x6H/LdURs46EmkHhgbwD3b4DJ5WGTngSOSgQuOQI41KlZFNDgR+hWyPo4FOBzqlKiNLHAjUBFQE3vCjxoFOocrI5Ijkf4CpEuc+YG+ATndErfEqI1kiGVvyOolvIPAB+CTKHT8uR9DpEhWIEm8jCMyXuLb6rm2Rrs2NUDm3ooEGS/LbEo9cljwDBkgx9ZZad3WMXLAkXybxrA2IWSPFFFlq1eoYsdnnm8Uv4EdjQNz9AL0mC71qHSPbLIhLJI5CRexiKXa9hd5mHSPLLR48eQe5poi/KsVmii6LieZSHSP5hqQVRMcOQ808HdJBBtviFxEfFTniXRPTPCn6jwdKfNYkrcId9mtqeg0/bTzQIPwh2kKukKvZI/DO7dq4okF4XJrjFYbfDNa5l/QIieOExryLJkaOadQ6E6U5VYYPbNCZYhzwO2TOERMjO0PIzgUUhx8tjARtFrUhc7abGClWEHk72kwpvsLCRLzEpoudKV78ChMjsxVE3stOfqG9iGAk6IV6XRE/w8TIMIMSoySCiX9jncS5UBHrNTCM0O4gQdejDQs0p0HiMWk8tDFSlwaJx0J2Sy14bfxLDj/kRBmd4v0xhAiYBdxMkYEeUWVMwiG8Y+mjJJqoB+aRIGSI7bY1gQaeAKtIErLFx9A2hwa8NlS5Tr8qEcgV38yj9HLbRTdSbuClBF778oxhl7JLzBlFGqJA4yzTK2Km0AewKM4n6UZxrU8hA9gg/pfyGFiZ6oT6QRLxF5VS8OMOIBLjAAAAAElFTkSuQmCC;" vertex="1" parent="1">
          <mxGeometry x="345" y="175" width="40" height="40" as="geometry" />
        </mxCell>
        <mxCell id="hQloU-ylsv0QonK6hRle-49" value="" style="shape=image;verticalLabelPosition=bottom;labelBackgroundColor=default;verticalAlign=top;aspect=fixed;imageAspect=0;image=data:image/png,iVBORw0KGgoAAAANSUhEUgAAACAAAAAgCAYAAABzenr0AAAABHNCSVQICAgIfAhkiAAAAAlwSFlzAAAA7AAAAOwBeShxvQAAABl0RVh0U29mdHdhcmUAd3d3Lmlua3NjYXBlLm9yZ5vuPBoAAAI5SURBVFiF7ZddSBRRFMd/68darhIifSJsMBnrpmmWhWEY9VJQT4UoRC9FBEphEj4YaSHVS5+YQg8RGRUhSBRsIdkSlb6EFvS9yyaRWCFCaq3uxO3hFtdxh9RldF/mwOH+z8e998/MuWfuOEQIQRwlIZ6b2wRsAjYBm4BNwCYAkBTrxJ7XEOiTeM0qWOE2xj9+gsdd8GMEli6EbaWQmWGykAghYtHKvQiQeqlB+fUA4kAFwuFQcUCkOBGXT0avY/kraGyCK7dATLpljI1D5XG422H0W06g5YbC547BqwdQe1Da5TuhuNCYH3MNmElEh2+DEs+fB9X7JD5TC7u2Q9Hq6DmWPoHkJMhaIvGvMJy4COMRaZttbjkBgLIdCjdcAM9WaG6F8NgcEag/DCXrlB36LItPK4Xb9+aAQLoLHt2ExhrIWKD8/V+h4hCcbp5lAgDOZKirgr5ncLYOFmWqWP15+BCygMDkc24m6S44sh+CT6AwV/oiOvj8MyTwr6K/DCjf4JDCaaly1HVoug6by2HkpzG+qUjZw6MKT9kHnr+APdWymHx+OHVUnvX7nSrHmy3HsipofyhxyW7ZgDQ39L6Bq3dUfo42YYOpen7Aj3ClGvv6RM3PQfwOytzudkTaf3IB4dEQ4fcz+BZobuhoheVZ0TFvNrS1QMLfVTYUwNM2WJ9vvtbGteC7BilO5XNM9+dU16GzC94FJc7zwJZiSEw0z3/5VurAd1i2GHJXQoE3Om/aBGZL4n4j+gPA2Qopt0InZAAAAABJRU5ErkJggg==;" vertex="1" parent="1">
          <mxGeometry x="397.5" y="180" width="31" height="31" as="geometry" />
        </mxCell>
        <mxCell id="hQloU-ylsv0QonK6hRle-50" value="" style="shape=image;verticalLabelPosition=bottom;labelBackgroundColor=default;verticalAlign=top;aspect=fixed;imageAspect=0;image=data:image/png,iVBORw0KGgoAAAANSUhEUgAAACAAAAAgCAMAAABEpIrGAAAAA3NCSVQICAjb4U/gAAAACXBIWXMAAADdAAAA3QFwU6IHAAAAGXRFWHRTb2Z0d2FyZQB3d3cuaW5rc2NhcGUub3Jnm+48GgAAAmdQTFRF////AP///wAAgID//wAAVar//1UAgL//v0AAZpn/zDMAgKr/1SsAgJ//30AAcar/4zkAgJn/1UAVdp3/2DsUbaT/cJ//eJbwcZz/1TkOeaH/c6b/b6b0b6b/cKP/dp3/2DsK2TkJcp7/d6L/c5z/c6X/cJ/3dZ/43TYNc5/52jgM3TkLb6H5dKH52zkQdaP63DcPcaL63TYPc5/63ToOcaH6cp/6dKH73DkNdaP7caL7dJ/7dKL7cqD73TkPc6P7daD73DkOc6H8cqL8dKL8c6P83DkNdKH8c6L8c6H82zcP2zkPdKL8c6D8dKL8c5/82ToQ3DkOcqL62jgNdKD62jcNcqH62zkNdKL6c6H63DcPcqH62jkP2zcOdKH63DkOdKD6c6H6c6P9c6D6cqH73DcNdKH72jgNdKH7c6H7c6D72jcOcqH7dKH72zgO3DgOdKD7c6H72zgNcqL72zkNc6D5dKH7c6D72zgOcqD72zcOcqH8c6H83DcN2zgPcqD8c6H8c6H6dKL62zcOdKH6c6L62zgOcqH6c6H63DcOc6D62jgOc6D72zgOc6H7dKH7c6H72zkOc6H7c6H7c6H72zkNc6H7c6H72zcPcqD7c6H72zgOc6H72zcOc6H7c6L7dKH7c6H7c6H7c6H72zgPc6D7dKH72zgOc6H7c6H7c6H7c6H72zgOc6L8c6H6c6H72zgNc6H7c6H7c6H73DkOc6H7c6D72zgOdKH72zgOc6H7c6H7c6H7c6H72zgOc6H72zgOcqH7c6H72zgOc6H7c6H72zgOc6H7c6H7c6H72zgOc6H72zgOpfqfFAAAAMt0Uk5TAAEBAgIDAwQEBQUGBggICQkKDA0NDhAREhITFBcXGRoaGx0eHx8gJSYoKS0uLjEyMzQ0NTU2ODk6PT9AQkNDRUZISUpNUFBRUlRUVVhZWl1dXmBgYWFiYmNkZmdnamxsbm9vcXJ0dXZ3enx9f4CAg4SFhYaHiYuMjY+Pk5WYm5ydoKGho6Skpaamp6evsbO1trm7vL29vsHBwsPFxsbHysvQ0dPT1dbW19jZ2tzd4OPj5OXm5ufo6erq7O3u7/Hy8vX3+Pn7+/z9/v5i8FDHAAAB0ElEQVQYGX3BiV+LARgH8N/YO1EjFqZJFFITOWrIkTPROoiaDnIfK3JNrhI5JleuylENURFT6bAcI+V9nj/Kxodt2vt+vxhKvw3yFr6GvH0cAlk14iTIGHaan0DGqGssboC0aY9YzAb0o+Hfoi4WsxF345QSfk3t4R+bx10W8+Cfqoa/rJz1krdDwjrmTNzn45ByiL+p4pjnQ0omc4yeeQ+kBHfwFuUn7gmGlHw+h8PM+ZCivPguIOg5F0OS6vpGHOXlcBmuhY9Q48nyq2EImIM75wEIF3p/3hsJj5kfqPfYDAVcMibOM5rjhblPqRAe4Y3k0t9t/+gkIlsKgFXUAG9rzljv2t4011otpki4VZAVPgpqtXAbn5CTAOAgNUbCm2An6rM9buokooEU9SVH6Rj40u2utPXZ66vOHkiOwNL1gRgi0ayAm3os/NJ+J2dr9ZWbrQPdm/A/xRRDqi73Lf022FIiAJgAj7TOz5XJI4Awg3FrUlQgXITFdVH45xb111uy1i6JjdBodNErcorKqx1tRZMN+Euzo3mQPBxND8qWzS5pXwAviummgr3mE0d2mtLTTLvMpS/oVSJ8qFfvL6t6+Oy982tbw+0KS2E0/vgFsHWl3BbH6w4AAAAASUVORK5CYII=;" vertex="1" parent="1">
          <mxGeometry x="262" y="529" width="38" height="38" as="geometry" />
        </mxCell>
        <mxCell id="hQloU-ylsv0QonK6hRle-51" value="" style="shape=image;verticalLabelPosition=bottom;labelBackgroundColor=default;verticalAlign=top;aspect=fixed;imageAspect=0;image=data:image/png,iVBORw0KGgoAAAANSUhEUgAAADAAAAAwCAYAAABXAvmHAAAACXBIWXMAAAsTAAALEwEAmpwYAAAFGElEQVR4nO1Z208cVRhfbw/2RePlSX3wbzAa++SLIXvOQltjqKaN8UmTqqnGRGvQBJNausywbaX0QlrFC2krCL3QVtQ2G85ZlgILLNdti0BZoFQoC+WysNfPfLM7lF1YZoaZ2QfDLzlhObv7ze87l9/3O2ctlk1s4v8Lhzv/yaw8qKoq/zHBlbu1mJECgZEagdNekZOAwGhY5DSSeE26RUZqBU6/cnDr6wCWRxRjMlppKvGShpyXBE7sAiOjIqegsY0InB6wO60vrhW72EXeERiNiw15LxtO/ACzPi9wUi4yEtoA8dTGMAYpLXHmPifHx9kRGPHi+wIjXxpKXuBkl8DolG7iq9uEyOlOfIbIrXlyv8CJxxDi5Z5XnhA4PWUCcUhtpBRJp/TpXUaFntwtAqNXzSdPl9vRpp1Qd7NYel3Cyaf6Rj7L5EVOwTt+BQYDrcllRK9tOIHsLBua0i75igARiYXgcOMOQDk+7Nz+tGbyJS7r7myTP9v5BYSjiyCjuucbqR9lVRP5ouYdzwqcTGaT/IW+/RCOLcFKtI1dlN8/rikBSeezRPyQaxs0+c9BHOKQjqngSGIfMOJVTR6royFFSkX7rbsAJueHIDPikiKJjMTsf7/5lNrRt5tJ2uHKg/N9+2F42gtqgElKs+Cy5iiSL4TCR9GnGEH0SONbcKL5Paho2yOtbzZUAb6JBliMzIEWNAz9mIjJ6F7l0Xflbt0I0Yu+Ikm7Rx/0wsziPUkCjULXeH1yH9CjigmgJVZN3P02NPnPah5RJQTDD1L+vzPdkUiAk3rlGWCkRg35Xzs+k0baaETjEbg760vpCwTHZCXyKSYgMtqjRP5c1z5YWWyMRM+/12ApMp/StxCekZ89omIG1rfK5S3vw2Jk1hTywcgsOAdPr+rHhJJ7YErFDKyv//9M3QCzcPmmCPfm+lf1oyAkVIiEdCXwc/snppFvv1sHdT57xplJbGK6pGsJtY7WmEJ+MOCB0qb8jKIwMT8oq9Ckrk08PnfbcPL+mS7JMnvHr2b8zECgRZ6BLjVLqDZTAqgGRuLWJJfIX+j7bt3P4cwnE6jWVciMKljxeAzcw2dA5DapnihJcm3vt0kOtn2KCeClU+YZmNZNHtc5HlowXkXbHsWYKKGHGrcnODRaX1Vl5gRO/UZLKB5UmkeqJfuBsX7p2KtqScrLR2RkGLkpJpDcBwfXSuD6QPmGfA36pWM3di3HwduGcDSo+N1QdAGON++Wi1iRRe+BBqVOzTKaDwUkVanq/hocrm0p3+8c/0N18n/2ly7rv8Nte8GiBQKjJ9aaharuglVWGUcKpc45eAp+av9Y2pzpR8b620ekxNSiZeT35e+rstHpcLhznsl0qEeS6P3/6i+DivaPoCSNsNx+8HwIjcOVMB+aUk08GgvD9YGTDweBkfsr7001QWS2d9VY6/TkkDRWTy2IxsKSEz3t+SAlnsBt+Rsi/zAJcjKdJN4goHbjXxypSu/nksJML46tSzIWj0q1BL3N/QU/3Jluh9bRWrjkOwjfJ9UppTFaZtEL6YcGTs+vDCz79VA0qGl2tDSBk8uFzjcetxgBvNwVGb0iB3f7z0jkUR5NSqAOn2kxEslL3jWVydDGaJlhI5/xpx9zrhwndG9Yjfemx7DA6F/rdAl1HmXbkm1gdUTbkck7KRD3oz3QXGHNAJose4PtNfwJFT07Hjykkx3aEUZCyVNeJ76HlhhdpWpjtolNbMKyHv4DEwlIYov/X1cAAAAASUVORK5CYII=;" vertex="1" parent="1">
          <mxGeometry x="213" y="526" width="44" height="44" as="geometry" />
        </mxCell>
        <mxCell id="hQloU-ylsv0QonK6hRle-55" value="" style="endArrow=none;html=1;rounded=0;fontSize=18;" edge="1" parent="1">
          <mxGeometry width="50" height="50" relative="1" as="geometry">
            <mxPoint x="40" y="920" as="sourcePoint" />
            <mxPoint x="40" y="160" as="targetPoint" />
          </mxGeometry>
        </mxCell>
        <mxCell id="hQloU-ylsv0QonK6hRle-56" value="" style="endArrow=none;html=1;rounded=0;fontSize=18;" edge="1" parent="1">
          <mxGeometry width="50" height="50" relative="1" as="geometry">
            <mxPoint x="40" y="920" as="sourcePoint" />
            <mxPoint x="520" y="920" as="targetPoint" />
          </mxGeometry>
        </mxCell>
        <mxCell id="hQloU-ylsv0QonK6hRle-57" value="" style="endArrow=none;html=1;rounded=0;fontSize=18;" edge="1" parent="1">
          <mxGeometry width="50" height="50" relative="1" as="geometry">
            <mxPoint x="520" y="920.0000000000002" as="sourcePoint" />
            <mxPoint x="520" y="160" as="targetPoint" />
          </mxGeometry>
        </mxCell>
        <mxCell id="hQloU-ylsv0QonK6hRle-59" value="" style="endArrow=none;html=1;rounded=0;fontSize=18;" edge="1" parent="1">
          <mxGeometry width="50" height="50" relative="1" as="geometry">
            <mxPoint x="40" y="160.00000000000023" as="sourcePoint" />
            <mxPoint x="520" y="160.00000000000023" as="targetPoint" />
          </mxGeometry>
        </mxCell>
        <mxCell id="hQloU-ylsv0QonK6hRle-60" value="" style="endArrow=classic;html=1;rounded=0;fontSize=18;" edge="1" parent="1">
          <mxGeometry width="50" height="50" relative="1" as="geometry">
            <mxPoint x="520" y="530" as="sourcePoint" />
            <mxPoint x="620" y="530" as="targetPoint" />
          </mxGeometry>
        </mxCell>
        <mxCell id="hQloU-ylsv0QonK6hRle-61" value="&lt;span style=&quot;background-color: rgb(128, 255, 0);&quot;&gt;Alojado en:&lt;/span&gt;" style="rounded=0;whiteSpace=wrap;html=1;labelBackgroundColor=#8CCDFF;fontSize=18;" vertex="1" parent="1">
          <mxGeometry x="630" y="500" width="120" height="60" as="geometry" />
        </mxCell>
        <mxCell id="hQloU-ylsv0QonK6hRle-62" value="" style="shape=image;verticalLabelPosition=bottom;labelBackgroundColor=default;verticalAlign=top;aspect=fixed;imageAspect=0;image=data:image/png,iVBORw0KGgoAAAANSUhEUgAAAGQAAABkCAYAAABw4pVUAAAACXBIWXMAAAsTAAALEwEAmpwYAAAJl0lEQVR4nO1d+VeU1xn+/oj+0DQ6CyQq3zcz7AyLMgPDKosIM4jDJgOOIqBJVAQVizsVBMF63HMipKZ1wbhEUzGVaIxN0lSTtCL9pU1M2iaxc9Ka39Kep+e9LMVmhmHN983Mfc55fmHmwL3vc9/7vnd7EQQODg4ODg4ODg4ODg4ODg4ODg4ODg4ODg4ODn9CcLA0V6UVa1Va6ZpKKw6oteK3aq0E36D4LbVZpZWuqrRizbPP6ecIvoo5c0KfVWulo2qN+J38hpVmiv9Ra6UzGk2IWvAlzNWIuSqN9C/qhCbYAGNGKXJq96N4xxlUtvfBefBtn2Blex9rM7Wd+kB9oT5R3+ZqpRzBF6DSiHXDIwkxqcUo2XledsM6Z4glu84jOs0+6i00FQtK9wxqqCZIh9TyrbIb0DlLTC3bCuoj9VWxnkIxY2Sa8mcxnGNEGZ6+/qlSLXhGUBrUGvHEyDTlrTMru27CtukEEgvWQm/MxDxdPDTBbMTJwpDwpCmJEp1aPPI7jgpKS23VWvHfFPS8xYyCDUegN2ZAF5MOS0kDlm1+BeUtl7Cys1/2UT9Zluw8NxToNeJ3NEMISgEFNxoplIl4anxV100k5tcgJNyMvLVdshvTOUM0ppWOeMkaQSmghRM1itJDT2JEW4oQmVwIR9uvZTeicwaZU9M6JIhGvCIoBSqN9CdqVPHOs24bTZ5BYvjitOT0QlqnsOCuFR8KSoFaIz2hRjnar7uNGTRN+ZtnOIdJfR7yEOmJoBSMZCvusil9bCby1nXKbjjnLHKk/4LSBaHUlrIpZ5f/TVVOXxQk0VqHlJJG2Q3m5IIMGcEQm8nWGRM1SGrxRjy/IAJhRguS8lexqY4ytNnYNKTsaFF2OUKjTHhufhgyKpr830Pm6eJQ3nJ5wh2LjE9H3/VefPB+Hw4fPoDFuTaEGy3Ird3P4tF0hSBxyfAh+ljkFSzHqVeO4P79fvT2vor4FKv/C0LbIRNNdR1tb2K+GIWvvhyA6/HgKEmglLQcGJMLULbn0pSNVtT0KiITMlFkL8O7d6499Tc+/fPvmWdORHR32yw+I4i7n3mirfFlJKflPmWoEX795QCatm2FLjyBGXayYpCH6cLi0X3qmNvfTwyNWMi2cCbiDQEhSE5NG1ZUrvJoMOLp0ycxf0HkpDcPjfEW/O79G+P+bpMlC0VNPVyQEUHSHc14cf36cY02m0xbnI/CRu8JSMB4SHpFM+ob6mUThKbLiWSE7vbr/FKQ1LLNqHvhRdkEiYgxo3RX76Tjk18KsmzLKYiGWNy+fVU2QUIjElhiEfCCUCqrD0/A5YuvySYG8fy5bugjTahovRrYaa9pSSV+2twkqxiuYTZubsSiJVWBG9SLtvYgLGohPn/0kexiuB4P4rO/3INkiPV4ruP3gpiXrkJ7+89kF8I1hnv27kRSwZrAE4S2KaTQeHz80S3ZRXCN4YcfvAVd+KLAE2TZ1h4sMmfILoDLDaNizSjefiawBMld24HlpRWyG9/lhvmFJVj60qHAEiTdsR3rN2yQ3fguN1y1phZZq1sCa6VOWyUb6jfKbnyXG1bXeBbEk9f4vCC5dR0oKa+U3fguN8yz2lGw/nBgLQxpI8+cki278V1uGBNvgb35l4EVQ1Z2/gYLdDEYePCu7AK4xpCOdOkgzNNNGb8VhGjKdbCzc7lFcI1hW9uewFwYEml3NdJoxt//+onsQrgeD+Lzz+7DEJEA+7bTgSkIMSGzGG1tytg+aW5ugimQNxeJ9J5ECo3Djb5eWcWg7X86BijfezGwBSEWbDzKpor37l6XRYzbb19ht1L4mfoYUZbUdUAyxOHc2e4fVIzunuPMQ/M9bJUEpIeMPR8xRJlQXFaBex/enFUh3vttH6xFJezaqqc1R8AIUrb3IuJSrIhZtBhJ1hqU7b4w+llVx43R657ZeYU4eLAdt2+9gcGBu+zC3FSMT7chHz64i1v9l9HRsQ+Z2QVs6z+zajtbD01m0PilIGnlTXCsdLIrnbt2b4cufCGWbel+6jskDO240iFWjCmbfUc75qXua6dPjivCyROHRr8bFKxniz2jORdJ+dVsW2Rl51uTEsKvBaHroHRU+uAP7zDjvf76LyCFJTDPGc8Y2dX7oA+PR3f3Mfzj64fjCvL4qwH8/FAHREMcSxqmYvyAEYSY6WhGYlIGO8cmA7btb0GMOc/j8wNr/Ql2/5Zuxk9muqJ0mrZoqCwGF8RLUE+21WKFo4oZjkb8MnspzPmrv3djnkSi4Nt7vmdKMeTAgVbEpRVxQbw9R6jsuAF9+EIWtMlwjz69h3ybHRFxqcis3M4uP1e0XmMPR5OmsTP8xaOP2RQ5necMROoL9clnpywqmeHtin/Wqj3IWVr49DRz4wKqa+rY9ryoN7Jg3t6xb1ppbpG9HLm17dMShASdb4j37ydtNOpizDno7Gqf1XVHQ2MD0lZM/dkakVbyhrgs3xXEZF0LS/Em7yNv9wWERiWx2+/0mmk2BGlu3oaU0s3TEsRir4fZ9oJvP4uWYtIm9CyaYoV56WqIBiPKK6rYOuLOO1cx8Mc7+NsXn8gvSFc/dNGpsDW87LuCUCeo/NKSSRQOKG+5hIzKHUjMXYHIuDS2YtcE6XH8WJesglD8McQtdju4FCfISOEyt6U1Nh5FSJhpWqU1LMtfQmvrHtkEIe9dEJYIa/3x733m2P/maCEzQSlQaaRBalTJDve3/ahQWWSybcpvzi0yCkJtjjBbYbKuc/s53XBkgmjFB4LiyjPVtHnMpKJTliMiycaeP/uKIBWt15gY0al2j+up7DVKLM+kFWu8FTCjDpGnhISb2DXSydQ/sfzQgnT1s3tjNE2RZ4y3uB0tYBYkVQtKAVV8pjJ3rMSflz0jiikU6Cljsdg3sdyejk3H67RllgWhv01toLYk2+tZ22gN5S5mPDVd7TyrzBJ/BLVWOkYjheraTmQE2hpOstFHmcs8fYKsRTA1wTrWBmqLybZuKLX15sFdQ9PwUPyQjghKw9y5838yWia2LBDKxG4ezq7Eb9Rq8ceCEkFFhUcLKfurKF39SCndMlpIWRWkyxKUjOEKpazUONW1pVKqshvx4MyQYgZlXGNKjdcIvgCVVsqmhdLQ/GxgmQjVp6Kc3d3iUal0tF9HcfOvWGpLffhfMX7xG8V7xv/jmXnzfqTWip1+9e8qNKwvRxVZWnxS/0ckSKpWaaQ3aDU7UsHUJ6iRngy1WbxCfVBcasvBwcHBwcHBwcHBwcHBwcHBwcHBwcHBwcHBIUwT/wUBAxLjZU1qCwAAAABJRU5ErkJggg==;" vertex="1" parent="1">
          <mxGeometry x="600" y="570" width="80" height="80" as="geometry" />
        </mxCell>
        <mxCell id="hQloU-ylsv0QonK6hRle-63" value="Github" style="text;html=1;align=center;verticalAlign=middle;resizable=0;points=[];autosize=1;strokeColor=none;fillColor=none;fontSize=18;" vertex="1" parent="1">
          <mxGeometry x="600" y="630" width="80" height="40" as="geometry" />
        </mxCell>
        <mxCell id="hQloU-ylsv0QonK6hRle-64" value="" style="shape=image;verticalLabelPosition=bottom;labelBackgroundColor=default;verticalAlign=top;aspect=fixed;imageAspect=0;image=data:image/png,iVBORw0KGgoAAAANSUhEUgAAAEAAAABACAYAAACqaXHeAAAACXBIWXMAAAsTAAALEwEAmpwYAAAKIUlEQVR4nO1bCVSU1xW+/zoMCCqyKiBVUVzAuu/SmjYqgljRJlpQwCVxQ8XUKKYEazSp0dSeuKQKNmqVYDTWfY0boohL3EDFFdCIC4soy8wwc3PuKzOZBJcZBEY83HO+wz/vvf9/7/v+9793730HgDqrszqrszqrM0uZCACuAOADAP0AwB8AegFAGwCQ4A21lgAwnZekPbwgFgEAEjie1wmyQmP0WyMqlGkAsBAAegIAD7XYOAB4m5fk/QCgs3PxKG4/JEw3+JPVGLbuGE7cfhmjjuQwTDt4B8dt+gGHfr4Be42dhc6t2qs4jtMJkpwJAO8DgBJqmXkLsiKVF4Qy7z8M1YTGHzCQ1WPG0RyMTn6Ac5If4syj9yvUj998DruFTEXZ2lYtSPI9APgT1ALjAeBDjhfUzXq+rR6/+QcDoY+PP8Ll5wpx07VSPJilxeS7+Ascydbh1usqjL/0FOel5Brum7z7OnZ6Z4KO4wUtL0qbAcAWXlOTBVFOlJU2Kv+YFQYC/ziVh99llOKxu4h7bmlwbXoR/vNsAS5IzcXYE4/wb8cf4icpubjodD6uvvQUt95Qs7Y7b2rwX2cf44zy59AssnN2UwmSfAMAmsFrZja8KB2wtncsDV+XzAZM03vj1VJMuov4zZUSnHfy57f6MpAoJAbNiu031YYZMXnXNXTv2FsjSNJ9APCC18Q4UVJst3NxLx238Qwb6Gen8vBQlhZ33lRjbMojk4n/GnOSH2Di1RLcdkNtKJt6IAs9u/YjEWhdcLY0eQCe/0hS2qjHfJPKBrj4TD4m3dHhf9KesoWusuRfhMj9mejYop1KkBUplvYd+nAcpw1asIYNbOGpfDx2B/Gr84XVQtwYtG06NPMuAKXSzVLkeUFWXGofNEpLA/ro+EM8lK3FuEtPq528MULiD00HgHqWEGC0IMma9/93ka3UtHpvua6qtmn/PPgEjipW2tYnEWrUOPLSuoVM1Rl/9x8lP6xR8nrMOJpT4wJ05zheN2FrGnv7u29p8Ou0IouQJ3QYPj4XeH52dZFtCADNy6M1R1bCccsat+tSSp0vSM1jCx/t+5YSwG9SLIqyIruqCAsAMIgTxQRBkh/pIzU9BEnO53ih5PeR81nna9KK2LdvKfKEiA0n9OPzflXyAeRq8qJU5tU3QNN/1hIMiduPNNUnbEvH0NUHceCcpdj53Yk4ccdV1vn+22W47Fz1b3svg5VtAxUAjKoscYUgiKuB43RtB/xZ9953503qlLY+CmQo0LG0AB6d+5IAiytDXilI8jFFPTvNu0u3sYfNKA9i1qUXswDmcLYWk+7qcNctDSZcKWFByqxjD3DJ2QLm8uoDFkvCd/AoSqh8ay55jhel7Tb2juqwtUnsQXNPPGJhKW1rFLouPfeYRWoLT+fh8vOFmHC5hJGmhY/C2m8zSi1OnkC5A0FWJpkrwBReELX0bUeVv3WKwIgURWTP64ycHVr9KWL7NDXP4uQJ3UdHoaBQJptD3pHyc73GzWYPWHAyl731mnZlqwpdRk5GjhdyAWA5ALxn2LJfYLG2To1LKR9HKam9t8vYN29pIpXFqK8PY8dh49Cr76Ay2hE4ni/jBGENADg9k70gyT/6TfyY3UypqgOZWpyZVDE3Vxsx/dCPLMHayLOlihfFAgDo8Wv+3uQ4RCSksBtodY+7aPrUH7FiFwbMXVWOOJy0KwMj993GkV/tZvXkO/xcX7Wgvk0d57Tvs9EnIETLC0IpAHQ2FmCEbGOrokbRxx6wvZzyc6Y8lDxAjuPRwdkVHV1c0cm1Mc6c/wXO/TIOO/Xsi6u3H0S//oNYXVWD+qS++01dYNaMaP3H4DKa8cYJ1Rn2ni2LqXL+yVyWhPzrM1LTz4KHb1cMDg7GLVu2WATUt4dvN7MEoNlp3dBRBTwfoxcg2qmlLxPg89P5eDhbZ/LDmrTpgKGhoa9MJC4uDn28W6GrowNGR0ezsrFjx6CTQwPs2aMLJiYmYnx8PLZq1wbtnR1x9uzZrA31TWMwd114K+ozFEQpX3/aNKaeo2uJcTT3QSUE8PPzw+bNm5uM1q1bM+J0b1BQELa1t8WxXi7o3Mge169fjzzP4cxRDbBhfQknT56MQ4YMQdnTAa0C2mEDB/tXEoDiGQrhAaA7CeAvSHIZrZbk0tInYGra2liAqKgodm0qwsPDMSEhgd1L1w2sFNi+kR229mqBmzZtwvp2NtjDV4mSyGNMTAxGRESgWE+JspcT/qZli1cSgFDPwaUEACKYE0TJTL3vv+OGmmVxa/ITIMKjR4/GwMBAXLlyJStbvHgxDhw4ECMjIw1twsLCftHmVQRw8vIpBoD/J04opdz5nQmsgoIbcoFNSWpQ5/7+/rho0SKLgPqurAB2Lu4kwAT9QjhWsrJW0ykt+fY7bqrZEdbLkpqNvX0Nx9mWAo3BXPKRe28h5TkAYIBeAJGSHx2Cx7C0dgyltbO07CTmRVti41Y+pbOmTsSsCykWAfVNYzBXADqWL3eIrI0dov60FgTOizeEwpThoRzA/NRnL4rUeeyH07EwM90ioL7NFuDwPXRs4aMSRHFtxaCA52eLskIzfMlm1nhW0gMWFK2/XMwSHf++8ARXXXyCfy8/oNQL8OROBqqfFtQKAfwmzaVIkTJGHs+KiziOExbT+Xu/aZ8ytYxv/m96MUuQrCg/7tILUJRzG8kKMy+bPPjrZ5JwRHAAjgwOZNc1IQDlMDme1wJAKLzEwkklx+btVMO+2Mgiqhd9AuYKUHDrEnbt0Ba7tLVh6NaxHT6+nVZtApDj4xMYouU4Rn4qmGhugiCuoXXByq6hyifgL9rfTZnHojAShdDIzVNtrgB301Jx7qwotFaKeCnRjYGuqYzqzBWAxqAfjzHokJYCpRZ9/DWCpNAIknwdAN6CSpgLAIzjJcU2UaHMoLMA423IVAHOHdmDvbv9FgWeR4Us4KJpjbDgsCcDXVMZ1VEbamuqAM/bHnlRLBKtlDc5QdwAAEPLzziq1pRKq3OmCjBs8ADs08EG93zpgjn7mhrI60FlVNe7gw0ODxposgA0hionVh0ChI0Mxs5tbDBnb0XyBhH2NsVObWwwYuSwN0+AjFNH0L2JEwb0tcO8gxXJU1lAH1vWhtq+cQIUZqbjke0b2feZurZJBQGojOqojTmLYK0SIGXfVkby2hb3CgJkbHFndSf3b3tzBTi0NZGRzNrpgfuWueLQfnYMdE1lVEdt3lgBci6fwaZuzmhXT2IZnwH9ejPQNZV5urvg/Stn31wBCjPTWRSXsGopXkjaayg7f3QvK6M6U8nXWgEKqxCvnQDqJ/nVgpK8e4ww/TX+bXEBrKzk7yPHh+OT7KssHNYUPa4WlOblMML01/j3lHHhaCXLBywmAACMUShkzcLYaNy6Pr5GQX0qFLKaIldLCsDxPD9TqVBkSZL0tCZBffI8/0H5f6PUWZ3VWZ3VGVTCfgLy6elLSSofkAAAAABJRU5ErkJggg==;" vertex="1" parent="1">
          <mxGeometry x="700" y="578" width="64" height="64" as="geometry" />
        </mxCell>
        <mxCell id="hQloU-ylsv0QonK6hRle-65" value="Nube" style="text;html=1;align=center;verticalAlign=middle;resizable=0;points=[];autosize=1;strokeColor=none;fillColor=none;fontSize=18;" vertex="1" parent="1">
          <mxGeometry x="695" y="630" width="70" height="40" as="geometry" />
        </mxCell>
        <mxCell id="hQloU-ylsv0QonK6hRle-66" value="" style="shape=image;verticalLabelPosition=bottom;labelBackgroundColor=default;verticalAlign=top;aspect=fixed;imageAspect=0;image=data:image/png,iVBORw0KGgoAAAANSUhEUgAAACAAAAAgCAYAAABzenr0AAAABHNCSVQICAgIfAhkiAAAAAlwSFlzAAAA7AAAAOwBeShxvQAAABl0RVh0U29mdHdhcmUAd3d3Lmlua3NjYXBlLm9yZ5vuPBoAAATTSURBVFiFtZZtTFV1HMc/v3PO5enyJPgApIAPzZ5ErURQB0KaGVxKnVvrVS9y1XRtbc1VMyNdqzZt811aW63p2tp8RGcuYQwm6KaVpqOZKIiASBAkl6d7z/n1wi4herknpt9X99zv9//7fv8P539+gkt0rV6cGDOsxQpLBPIVZiAkoljAEOh1VeMcQlVAgsdTTp7rdVNXIgl6l+fPMU37feAVIM5l3gGFfY5tfp5UXX9lQgHU90ycv98sB94BLJfGYzEM7PLacVulunrQdYA7sw4eAJk3QeMx0N9M9fhiq+qaIwboW7loAY6cAKY+GPMRtIO8EF955kLYAAPL87Jt0znzEMxHQphq5Y9eCSP0Y/0P66O+LUz49CGaA6TbEjyiq+dE3xNgwBMoP7bAu6Y1xbpnnx4wcvqGUreEHgTAV+HL1KD5BxA17e/g6V3f3cp7yCECplqPxlbVNVsATsD6QESjADoSrbzTs2PP5jUOPBt2eFoGZkExkpYBloXeaMGpr0FbXC+exxF7M7BRfBW+OA2aHUD8CGtr4ze7b2ZZjt71/kt8ArLxXdssLDb/6rf1crcKwNwU0eQ4U/jzoBPV9LZB0NUleBv/0BTLCVglIho/mgmYMnvv0sSa12p7C0bMExJg557g7dR088PKIJXNjjh6hzMFWZGtlOeVSdLj84MxDYWWixAJeKMLDUO06H7siRxvTk+s2R16NjZttv2pGebLh235qckhZA5gK5y45rD2iC29km0Gsnc5bpYApdRQ0YX35YTkHSUplwBkRhZmQZG55ZQjN/3h67X74aN6R3TyWkNj50YOIJproDIrHH8lzbO0ISPqsrG0kK6+oJ5sjjyxk80OPf22aoovcgBkpgGkjKMwvihJ7Wd6Jhe7EB1HGIKj0NCtojGzXahJNgTGrXs7WhZ0pid1RpDdBVVAg66khkLE41rjuRE9L1XUiNg9gCHwZKqoDDa6CdBjANciqWrbTiVO8lpSlGlEkvJclkFSnCnSddCFv141VOXnSLLWvjZq22rt7fmiad7wuox42JYvqrf22zLk5laU8wZQ7ULJlxe/MgfsW/ahMktXZBmM3g5D4PlsgwNllkY5rf3RzZtMNzURrZSyw2UJjmN0ALGR9DFWDG88scEpmL7M6Om39VKXigJPpYomxZpytuN095KWNcli+yPvFfhxhtIEoPTQS3tQ2eAqNTAtbipL0vNJi0tDcWj3d1DXXsdb1o/nF3k657sss1sKh94UgJL962aJYV/ExSqEDSUDZ76eVL3YpXwIRx6TosEmA+DYuv1XRWXbRM0FAlsTz077HyN2SNFgE4zqiNo6p+wEfp1IgBxPV32m2ZftTq11+Ae3j0QZTZVWlD5C0KoFZro1F+jZm1LpJDI83pUewnUCVq6s8HeE/rjrtB71HW21YaVAu9sAq6Obz7s2N/XF0eb3BAA4vuZQI5adJyo1kSpaOC2ve3930T9qHQErV5YNXxrL3Pd9rfBVXI8JWsVAuUAgXNkN3oZWD050OB4YAvmEycNFY2ceQsTPi++Ibya2+Z7Cq4zqG+ON4QvfJ1fmhBnWB+zDkc9Cpz0cXHzf7qDscFmCo7JKVIpVdOHH8eeGn/Z05v5boxf0KiK/gFYxMHxcVjFO7/Qf/gG5wtKh5dZ2qgAAAABJRU5ErkJggg==;" vertex="1" parent="1">
          <mxGeometry x="320" y="26" width="48" height="48" as="geometry" />
        </mxCell>
        <mxCell id="hQloU-ylsv0QonK6hRle-67" value="" style="shape=image;verticalLabelPosition=bottom;labelBackgroundColor=default;verticalAlign=top;aspect=fixed;imageAspect=0;image=data:image/png,iVBORw0KGgoAAAANSUhEUgAAACAAAAAgCAYAAABzenr0AAAABHNCSVQICAgIfAhkiAAAAAlwSFlzAAAA7AAAAOwBeShxvQAAABl0RVh0U29mdHdhcmUAd3d3Lmlua3NjYXBlLm9yZ5vuPBoAAAWQSURBVFiFtZdZTFRXHMZ/984wGzCjghsgsomKaBURN1xSTR8qaa0aXNqoqbW2MaYPptaoqSY1JjaRprHGmi5iWzcUt9TEBVNbpwp1YROrwojiiCJl01mZuXP7MDBqGJhxbL+Xe87337577rlnEQgN4cAMILWjfxs4B1hDzBc0RFGlWiuq1BZBFD19Rma5+qSPcwmi6BFVaouoUq0BxP+tuFIXedSQMsKStTlfVveKknNO18qzTt2RVYY+ctbmfNmQlGZR6iILASHYpIrgq6s+lT3SysGzFqkbLp1FDFPhtllovVmKo6kBS10N0RmTVU3lxUOFMKVVlqSLQeUNsr4OUdiYNPcD0eNy0XqrjIj4IbietuF62kbk4FRab5XhcblImrtMFBA2AdpgEis7nr2AXKB3N36JhpR094iPNwJgLipk2Ptr0A0YBIDt0X3+KTWStmIDAE3lxVLL39e+Amq7ydcCHATalEAvrVZ3I3vKNENMXJzOn3dFWSl17QLV+7YD4GxuxHzmMILSq192u3E2N/rsokKhH5ORuWLU6DF+q9ebzTbjhd832e224UpgfvaUaYa16zfpThwvxCN5ugSo1RqkjuEGkGUZl6UNQdEhQHJ7uQ675HSgjjSgjzR0ySUqRJYsXa7b8sXnFJ09lasEBiYmJeuOFB7kqPEi/TMmdQmyRsehtLb7hvj+6QKSc1egiR4IgL2xHvO5oz67sbKE5ug4jNauL9NwzYgkSSQlp+g4S2znHMDV3k7MxNcZt3JdlyC3w87PM4bzxHQDfXIa4XFJWOpMPgGWuhrCYxMBaKupwvqgljl7TqLUdJ2Hl3dsod35xNdXdvEAZI+H6pMFWBvqfZwhPomyrZ8wcPpbeFxOTIe+peVmKQDNlSV4XE6q923n4fkTGAYlUvnLTl9seP8YUnPmg9B1efAroPpkAeb8zcyeOcrHTZs6oKNVATPinrUBxmqBOG//jQQv57riiz22uxJBEBiSMz84AW11d1iQM5aZU0cCkD1+KADGklsv+AXLazRhnLxn8lfKv4BOFP1RCYDV5gDg0pXqF+wvy7+0AICmZguLPvoGAVg4ZzJRfSJC4rtDwKW4vOoeI4cPYsSwQVTcqAuZD0mAVqOivOoeo9MTyBiVQNn1u+i06qD410bEU3b9LvqInreEHj/BisUzCdepWfDOJGRZJjmhP+/NmwIQkHe7JXbuLuLrXWdQhilwxTRhOnXE+2tHP/ssfgUY4pM4sHs/Wo0KgB/2/uaz7fqpyNcOxOu0ar7MzkBA4HpjC6V7tvLoTh37ZJnxEyd3LyA1Zz6CIHDwdlVPAxQQmv7e9SI3fQi5wPlaM8a7ZrblfcPVyyWcO3v6mYAwlYrHly9R+n2eL4Fa3+uVBCh796WqsbVnn87G3HkL8EgSttb7r1T0eYT3juD64/ucrzUDMD0xjvUTRrJu9SrefHvuiwL0BgOjMzL9JhqbmRWSAFNNNSuXLuDCXa+AzyaMYmtxBVvydnD1colPQH3tHZMN8HsYeRXED07AIcO2vB0ArFu9ii15OxibmcWhA3ttwAOBjhPR5OyphuFp6f+5CJOpmuTkIQDY7Ta0Wh03qiptF/+80Gq329I690cD3jNhcoB8kQqF8sOc2fP8/j2/HjvsliT3LsASSBdQQMeZEKAN+C7Q2ygUimUpqUNt7y5Zrvdnv1lVabt1s+oa8GOgXJ0ItBmlALPx3h9UCMKGqOi+quOFB/w6R/Xtq1fUKHdKbncs0A5IwDGgprsCPd5g1GpNfdakKf20Wl3QF5jnYbdZpb+KjQ1OhyO2O58eR8DpdAxcuHh5KLU7obhwviimJ4ceBag1moeH9+f30xt6hzQCT9paJLVG0+B0OLr1CXSJTAEW4r2OhwILsB/vrPeLfwG5AzZlzEDC9QAAAABJRU5ErkJggg==;" vertex="1" parent="1">
          <mxGeometry x="257" y="26" width="48" height="48" as="geometry" />
        </mxCell>
        <mxCell id="hQloU-ylsv0QonK6hRle-68" value="" style="shape=image;verticalLabelPosition=bottom;labelBackgroundColor=default;verticalAlign=top;aspect=fixed;imageAspect=0;image=data:image/png,iVBORw0KGgoAAAANSUhEUgAAACAAAAAgCAYAAABzenr0AAAABHNCSVQICAgIfAhkiAAAAAlwSFlzAAAA7AAAAOwBeShxvQAAABl0RVh0U29mdHdhcmUAd3d3Lmlua3NjYXBlLm9yZ5vuPBoAAAU1SURBVFiFrZdtaJVlGMd/9/08Z+dsii9TU0slRVIRtNREqazNNOpDRUKUhEmSQkgkiWhCHMLlBykR+pIf/CAUqUTpkASrOaajl82psTW3OfduOp3uxbOz5+3qw3O2nfcdywsu7uu+n+e+/v/r5b7PcxS5SmV7Pk7PKxhOMcpajlhzUfYklCVg3UJZnWA1oayfCchZlm3pysWtGvON89fm4Lk7Ufa7KGsCWKBsUBZj2GVgH2DFx2dQSh6cwHExmNG8F9iNsvIfANi3lQXYgH0JHX2fZSVVuROobC/Etb5DWAdOdoDcbBttfUZD237ePOHGQxkp4BUN8/CkHHgaBFSMAM7/sQ1wipmWP5/ix09yom6kJDoBvOz6JDBOA/P9/DiA6+vDsMXZyILxR5DwCO4ogbIyE8M7gbDQX/AeDrBKsTdxpX53ag9UNH2IqEMjc2XB/fvQ1wtDUbAtyBcoECjUELBJqbeyY32SzbYA24boEpaU1psjqRf5FASiQ/B3C7TcgL5IXH0UKAVKQ8CAR014UsMjcVGSzU7ITACMEmCDn4GKa/sRdtPQBtX1YDk+kFJ+lYZtFbOJzbWGhQ6s7AdtJUeZxbYBXLQ3z6C2No+I+Q1XmguobgDRYARAm6ADvj2sOqaGOTrvCUG/CXN6Qed6KmL9J7Sa3Ckoov3mVGrbwAxliDjOTpeZznxoHBIWtKuxmzD+UtRrNLb1EhfbBCMERsgnYQZjY/xa3DPPaAS9GW/cZDxjCkbwdZpmt+CoVODkXkgQWWTS3L0eWymMUOYIh9dF2bQ23qGjYx2VJa1xnk4SrimnZ2IpM/qfzdyQKVKo6YqGEiI0gqlRGyHQeS51NQE6W0uSwH0JP3WPib37Mp+EtAQiJve9IGYosbvTZaLxssG924CcTecJgDypANcFx8ghelBSb2IEA1mPmtIw0OfS0WTE7oLBjAQCAwpJAlYu/q2aVo6Z6FA/Wk/PWvv2KgOR4bW5QFv6iKJrkFj0arjpMkQPl4jO+FYTyG8e6e7kU+DXHv65PrpNeDGtu6qtAcT9IgE45diNyE08eYsVh22NkXc5ofF0AJTh7xMX+m+DPRS3VzazOJyX4tI0ixBn0ShwhuiFGjx5nqWnrgJotFmGUiAeeHacWuBaEOlNdjGLQntvimPH+R3lXkiMPkHqELUNI2/VMDiAIlybh1ZdIFMQATz8Ufyxux1qyhNPhtI2hn6Vc/vOpBCpe2cmTnQlONPRYiLcQHvVLC5N2zf+j1H48gFEdqaAI3C3G6p/TSYASkfR5tucC/+YznGuEvsgcQ/iWRHcWPrjx2Aw094Q4v1AUfgwz30+LWfE9UfH8cbXM4enox8ke85/gqIkMQOxjFSdg8HB1OM5qoNgHEXzPQX2BUrDkQTQF8ImBVOXo/UGlHoPpY9watuuRAJbqwJM6i9HyeqUXmhtgo6WbATi1UKrdpS+BdpG68ko/QRKB2PPm1B5yzi1pT+RAMCOXx7DsCtB5iRkwh6Cmj+Ju4yyq874Th+G+Swnt/2V1AMxObi2E3toPZ7dltALWsGs2TmXOYPcQElRPHgqAYBDr13Ftp/Bs3/zSVj+nTB1Mkwp/G/QStUiajWl2y8mP0r9YwLwx/E+lq49ijIdxF2FuAHEg/Hj/RsyEo2VYkx10HxFJLCRs9u703Ibk/0HR2bjsQtkEyITQCASFXr6FANW+p7QKorWxyCwnzMfXc3mfmwCw7Ljy3z6gy+DFAMrcd2FCGC594i6HXhyhwG7C4xygvITp/fczcXtv5U6zfTd0v4pAAAAAElFTkSuQmCC;" vertex="1" parent="1">
          <mxGeometry x="380" y="24" width="50" height="50" as="geometry" />
        </mxCell>
        <mxCell id="hQloU-ylsv0QonK6hRle-69" value="" style="shape=image;verticalLabelPosition=bottom;labelBackgroundColor=default;verticalAlign=top;aspect=fixed;imageAspect=0;image=data:image/png,iVBORw0KGgoAAAANSUhEUgAAACAAAAAgCAYAAABzenr0AAAABHNCSVQICAgIfAhkiAAAAAlwSFlzAAAA7AAAAOwBeShxvQAAABl0RVh0U29mdHdhcmUAd3d3Lmlua3NjYXBlLm9yZ5vuPBoAAAdvSURBVFiFvZZrrFxVFcd/a5+9z5yZaW/n9lLobQu9FKi0vYUor1CiQVPTECMQPoAEJCJ+IBJN/KDBmGiRBOIjElA0QnwRvxQJioDxgWgEDPIISAqCtdSCcC/3OXfuPM5r7+2HPfdFEWuCnGRlTWbm7P9vr732WgvewcfPnnORHz+j5w+Pfvho31HvmPjEGZ8Bfo6QINHd7yqAP7xzNzq6lcIKzoOJGv7gjl+9KwDeI6joAZwXrAPng8XmAv/i9iv/7wA8u+UHaFXBebAOfB8AIOIn/qmtp/7PAP4bm6703z32x0cFoKJLyS0Udmn3CxCxVtTkWf/cCYNHDeCvH9nLhrm7ENmx+N23T77Q3z3y+yP+++DwB4iokxeQl1D6JQgHOIEkqVDUDgD4589f9bYA/pPbr2Dj9FcoSiH1AwD+q6N3sqZ6H6k5+Qh8XVxFbiEtICuhdJB7cCqIOwmfB6pD/rEdf6RrH/T733/D8iVkUfySXZvZduAga3sRdQdFnHHopHvZKJdTs+DSw3Ld30YADlxx24A4e219y6FPJ6e8trmyboJkeBKpeLAV0AIm6i8MeAELzLjvcVz9WjIuktFH718J8PHTn2bLK+8jLqHqoepAK4gMSALt1TMv/Om690pz4wOd1uiouLqICM47rHP42hib9tzLxj2/RqIIYgGjgrjvSzVdSa2aE4uSbY9UFwH8nj0fZPv+h0lyiEswNgBUHSQeaoDRtJ7fVbz4yzuMUQajFEI47tI7MpuTFT30ugOc+4UbUIM+QMQCvn/SXiCTlLWS0HbflJ1/+Xz4Red7sQpyDbkJvquWrC2QWga2PWZGL78MVuV4bRClMaKIlaISGU68+H5OvOh3PPOjT+DnBLoS3reylBeGJCSpu2YpApeekbJ2poKx/Qg4UAnEQJxDrQO1EqpADK6o8cYz1zD+1PVo5/DO422BTSYYvfla4g0d3LygJg1EKkShIiAS0n5Vgc8dYp+uiD/7Y2ey9a9PLoZeV+CsSWgUIZF0BDaGsQSKDGo9qAlUI8ryOJ78ziNE1uPLApem5PkM5915FXqwAKvg0GowAhUCRAw0UiiAqblrFN7uXhH6ooCJ1cvuswNTwEld2Clw6mo4pQGbGrzy3OV0jKEba3pGkxlFTsL+Wz4VrqQtYKgLbQXtCDoqFClCxfS5ulDjZBu5CQniBFwJLwHjI3B8GzbPQ80BivYLI7wxtot2fgITM+fRnBnFVBxR6dDeIpHCRnDoyTM5bdqi6h5MBzqDUAqUwJoilGyrkVKv13STIXLdvy7LikczDclXr+IHLL+47xYOpOfjkypKG2KvqSeKpBQMjshCJB6Ho/SW3qurqG+ZCdkfWehUQzLKNORArqAwqzSzQykbzMrK5VQ4P6NgHu57+LM8Mb2DfCDFaQHjicVSdRFrPDSUR2NRlOBLrCso2xH0ClAKfAnzCQzOhSMmhlQgU11Na80knTpUuyuFbd/+lTDWqTHru2QoShyIRStDzQtZJBQ4Gq4ksjlS5tgyp1KZhW4INXNJ2HF1KginCvIIen5a4XmE6XWQmbe21zSnH/8E83mbVtGhabvM2DaztkPTdfu+w2zZJi16pFkXqeRUTBtaGloGxgdh+DCkLtSGZgXaGublD5re9nuYnLuLgcloMQJWhTKsFZSOs3r/oBq/znQ6TK5LHBVMFOOsQuVgMofKcki7VIoeH9q9D2kZcDGIhnWHoczCLUiAqQSUQPTqbUq4NCerjjG3PlzF5btPY0gN5vWSG4fuppFPkcy2iJstXKtJ3mmRdpqknSa9bpNe1mbTpoOcuvlRmE7CTjsSxOdVAJiPYV7DLE25+p+pDmlau52JoZtJOqAzsCWUFrSFMoLIMjw1xR3xXdxkP8oLs8O4SIMSXAll5igKxdkjf+aC9+yDySoo3e8FywpQIfhWAxENtnvHym5Y+1KTemsNx70OqgRll3zklkx5xv0wj5sTGdd1Kjplq3qD0/TfWe27YbGqg0RCI1sQT0I19FPHIqbM5Ou/TQD04mTgks/Rzn/o9XpkcKovrkEsWNsHChDr1QQXu3EoPKhlJjGID0NJ2hdNXIAoLbw8jFQV1Ge/dcRAAuCrX34O6ez0AxmyptmH6EdB3JKXPsyi8DK/YBEh4Soe6g5m14E2MNA6ID/9zdbFoWo5AL3RM6nuH6PFWvJjoDEPJlsSlDeDuL5g37MAQPA9H6Lw6jH4WCOrsx71bNdyyRURAPDJ3hEon/eqV5PIBvp6Z2UkjrA+xALAwsqpgWYDnwjSyHscMzYqDz308tsCAHhuGqLaeway45Ey3IaqQCUHk/aj4ZaJuqXQW4XPNdKJQxUkgjifZMP8ufL0voNv1npLgADhFZUb90F6CapQXixICZGEoTNySNQf97xHrMNbFxoOgvgIJIJa9x7Gv3+ZhEH9iOc/AiyCVL+2Cd/7GeTngJOQBx6PR1g4d0Inpd9RBY/2jxOXV8vUrS+93fr/FWApInsbVPQXwX0E7Ga8q4XuJSBS4qWHqINE7l70/O3SumXmaNb9NxCKtbawdR4pAAAAAElFTkSuQmCC;" vertex="1" parent="1">
          <mxGeometry x="450" y="24" width="50" height="50" as="geometry" />
        </mxCell>
        <mxCell id="hQloU-ylsv0QonK6hRle-70" value="" style="shape=image;verticalLabelPosition=bottom;labelBackgroundColor=default;verticalAlign=top;aspect=fixed;imageAspect=0;image=data:image/png,iVBORw0KGgoAAAANSUhEUgAAACAAAAAgCAYAAABzenr0AAAACXBIWXMAAAsTAAALEwEAmpwYAAAC9klEQVR4nO2XS08TURTHpx3azhQKMtO5t4zFQkEIxBchGtQF0ntbwb3GjX4BjY8vAD5jYowxRkiMiYnfQFeSuNOFK9TEUIUqUB5FClETUsUHHDMEEkPv6TAUNsZ/chezOPn/Zu69/3NGkv5rA4Kq9iCQ2B4I8WMQinUB4bvBZPrWmhqJeqDsMlD2BigH8WKvgbJLYHTUbZ4xiVEgvBco/7nWcInE4GvFLkj7dBiWFUi63DDk9kLaF1zK+qPPctqBcJHm7CBQ/kn0trnKVkjJfhiUJHQNy+rvjFp9cWPmNHYSCFsQm+9PTqs7rn3e1hTJBmobptTtN1Mlpd9EEEnJBRnFvOPM3IgfxsyBsIcQblPX1swYzWVjHu0DBjGlVp1zsOdsBjloT0E6LqO1UrN3xFM+J4J47/YuZsoiTfYAlPch5vMQPFplV5/1R1reuWThmRj1VA6u46rxvNO+sq5K69S4z3gpPpgumC6NHCn09lcQ8yUgLLpegExZTTt2M8a9wRcFAJg4ZAgfkBwqVeIX3oohWVnA45UiCUd4r1OAtE8fxL5CNhDdmQ9gxPcVADjvFGBCCT3GACaU0Ol8gFCsCwUw+CmnABnFvI8BTCpmj+ALsE4cgOUT22hSNR8UAOgWACT2FtiCC04BJpTQE2dbYDIdb7O8zylA2qcnMYCZ8rp6YREs93MhwCunAClZfA2HZfU7WgTWMIEFkYMhw0o7PIiM5ziA0VGHRzG7vhlRbKVkwWIg7B7ShnNgJqrtzGf9O1qxZjTm1d7a0gONE2wKAsr67drxR08F2o5nAzWNtgCWwOg4hA8ksUezemNAWqM5rb581KONCAcSl9saSM5KTgSUn8Ag5itbhjJq+MaXiobalZHsFtZ8ls0V87Yj81UB4W1A+XQRQ+mvSdU8IxUjCHUaQPhdIOwHPpYHLbOVsdxnPS9mS6P9Ob3FLMr8b1kDCRDeY4VSgcgeAMK7gcZrpa0UhBPa8u+Y1UFXf83CCW1LTaV/VX8Amj1VIp6TowUAAAAASUVORK5CYII=;" vertex="1" parent="1">
          <mxGeometry x="510" y="26" width="50" height="50" as="geometry" />
        </mxCell>
      </root>
    </mxGraphModel>
  </diagram>
</mxfile>
